# Blender 3.5.0
# www.blender.org
o Cube
v 1.000000 1.000000 -1.000000
v 1.000000 -1.000000 -1.000000
v 1.000000 1.000000 1.000000
v 1.000000 -1.000000 1.000000
v -1.000000 1.000000 -1.000000
v -1.000000 -1.000000 -1.000000
v -1.000000 1.000000 1.000000
v -1.000000 -1.000000 1.000000
vn -0.0000 1.0000 -0.0000
vn -0.0000 -0.0000 1.0000
vn -1.0000 -0.0000 -0.0000
vn -0.0000 -1.0000 -0.0000
vn 1.0000 -0.0000 -0.0000
vn -0.0000 -0.0000 -1.0000
s 0
f 5//1 3//1 1//1
f 3//2 8//2 4//2
f 7//3 6//3 8//3
f 2//4 8//4 6//4
f 1//5 4//5 2//5
f 5//6 2//6 6//6
f 5//1 7//1 3//1
f 3//2 7//2 8//2
f 7//3 5//3 6//3
f 2//4 4//4 8//4
f 1//5 3//5 4//5
f 5//6 1//6 2//6
o Cylinder
v 0.000000 -1.000000 -1.000000
v 0.000000 1.000000 -1.000000
v 0.195090 -1.000000 -0.980785
v 0.195090 1.000000 -0.980785
v 0.382683 -1.000000 -0.923880
v 0.382683 1.000000 -0.923880
v 0.555570 -1.000000 -0.831470
v 0.555570 1.000000 -0.831470
v 0.707107 -1.000000 -0.707107
v 0.707107 1.000000 -0.707107
v 0.831470 -1.000000 -0.555570
v 0.831470 1.000000 -0.555570
v 0.923880 -1.000000 -0.382683
v 0.923880 1.000000 -0.382683
v 0.980785 -1.000000 -0.195090
v 0.980785 1.000000 -0.195090
v 1.000000 -1.000000 0.000000
v 1.000000 1.000000 0.000000
v 0.980785 -1.000000 0.195090
v 0.980785 1.000000 0.195090
v 0.923880 -1.000000 0.382683
v 0.923880 1.000000 0.382683
v 0.831470 -1.000000 0.555570
v 0.831470 1.000000 0.555570
v 0.707107 -1.000000 0.707107
v 0.707107 1.000000 0.707107
v 0.555570 -1.000000 0.831470
v 0.555570 1.000000 0.831470
v 0.382683 -1.000000 0.923880
v 0.382683 1.000000 0.923880
v 0.195090 -1.000000 0.980785
v 0.195090 1.000000 0.980785
v 0.000000 -1.000000 1.000000
v 0.000000 1.000000 1.000000
v -0.195090 -1.000000 0.980785
v -0.195090 1.000000 0.980785
v -0.382683 -1.000000 0.923880
v -0.382683 1.000000 0.923880
v -0.555570 -1.000000 0.831470
v -0.555570 1.000000 0.831470
v -0.707107 -1.000000 0.707107
v -0.707107 1.000000 0.707107
v -0.831470 -1.000000 0.555570
v -0.831470 1.000000 0.555570
v -0.923880 -1.000000 0.382683
v -0.923880 1.000000 0.382683
v -0.980785 -1.000000 0.195090
v -0.980785 1.000000 0.195090
v -1.000000 -1.000000 0.000000
v -1.000000 1.000000 0.000000
v -0.980785 -1.000000 -0.195090
v -0.980785 1.000000 -0.195090
v -0.923880 -1.000000 -0.382683
v -0.923880 1.000000 -0.382683
v -0.831470 -1.000000 -0.555570
v -0.831470 1.000000 -0.555570
v -0.707107 -1.000000 -0.707107
v -0.707107 1.000000 -0.707107
v -0.555570 -1.000000 -0.831470
v -0.555570 1.000000 -0.831470
v -0.382683 -1.000000 -0.923880
v -0.382683 1.000000 -0.923880
v -0.195090 -1.000000 -0.980785
v -0.195090 1.000000 -0.980785
vn -0.0000 0.6857 -0.7279
vn 0.1420 -0.6857 -0.7139
vn -0.0000 -0.6857 -0.7279
vn 0.1420 0.6857 -0.7139
vn 0.2786 -0.6857 -0.6725
vn 0.2786 0.6857 -0.6725
vn 0.4044 -0.6857 -0.6052
vn 0.4044 0.6857 -0.6052
vn 0.5147 -0.6857 -0.5147
vn 0.5147 0.6857 -0.5147
vn 0.6052 -0.6857 -0.4044
vn 0.6052 0.6857 -0.4044
vn 0.6725 -0.6857 -0.2786
vn 0.6725 0.6857 -0.2786
vn 0.7139 -0.6857 -0.1420
vn 0.7139 0.6857 -0.1420
vn 0.7279 -0.6857 -0.0000
vn 0.7279 0.6857 -0.0000
vn 0.7139 -0.6857 0.1420
vn 0.7139 0.6857 0.1420
vn 0.6725 -0.6857 0.2786
vn 0.6725 0.6857 0.2786
vn 0.6052 -0.6857 0.4044
vn 0.6052 0.6857 0.4044
vn 0.5147 -0.6857 0.5147
vn 0.5147 0.6857 0.5147
vn 0.4044 -0.6857 0.6052
vn 0.4044 0.6857 0.6052
vn 0.2786 -0.6857 0.6725
vn 0.2786 0.6857 0.6725
vn 0.1420 -0.6857 0.7139
vn 0.1420 0.6857 0.7139
vn -0.0000 -0.6857 0.7279
vn -0.0000 0.6857 0.7279
vn -0.1420 -0.6857 0.7139
vn -0.1420 0.6857 0.7139
vn -0.2786 -0.6857 0.6725
vn -0.2786 0.6857 0.6725
vn -0.4044 -0.6857 0.6052
vn -0.4044 0.6857 0.6052
vn -0.5147 -0.6857 0.5147
vn -0.5147 0.6857 0.5147
vn -0.6052 -0.6857 0.4044
vn -0.6052 0.6857 0.4044
vn -0.6725 -0.6857 0.2786
vn -0.6725 0.6857 0.2786
vn -0.7139 -0.6857 0.1420
vn -0.7139 0.6857 0.1420
vn -0.7279 -0.6857 -0.0000
vn -0.7279 0.6857 -0.0000
vn -0.7139 -0.6857 -0.1420
vn -0.7139 0.6857 -0.1420
vn -0.6725 -0.6857 -0.2786
vn -0.6725 0.6857 -0.2786
vn -0.6052 -0.6857 -0.4044
vn -0.6052 0.6857 -0.4044
vn -0.5147 -0.6857 -0.5147
vn -0.5147 0.6857 -0.5147
vn -0.4044 -0.6857 -0.6052
vn -0.4044 0.6857 -0.6052
vn -0.2786 -0.6857 -0.6725
vn -0.2786 0.6857 -0.6725
vn -0.1420 -0.6857 -0.7139
vn -0.1420 0.6857 -0.7139
s 1
f 10//7 11//8 9//9
f 12//10 13//11 11//8
f 14//12 15//13 13//11
f 16//14 17//15 15//13
f 18//16 19//17 17//15
f 20//18 21//19 19//17
f 22//20 23//21 21//19
f 24//22 25//23 23//21
f 26//24 27//25 25//23
f 28//26 29//27 27//25
f 30//28 31//29 29//27
f 32//30 33//31 31//29
f 34//32 35//33 33//31
f 36//34 37//35 35//33
f 38//36 39//37 37//35
f 40//38 41//39 39//37
f 42//40 43//41 41//39
f 44//42 45//43 43//41
f 46//44 47//45 45//43
f 48//46 49//47 47//45
f 50//48 51//49 49//47
f 52//50 53//51 51//49
f 54//52 55//53 53//51
f 56//54 57//55 55//53
f 58//56 59//57 57//55
f 60//58 61//59 59//57
f 62//60 63//61 61//59
f 64//62 65//63 63//61
f 66//64 67//65 65//63
f 68//66 69//67 67//65
f 46//44 30//28 14//12
f 70//68 71//69 69//67
f 72//70 9//9 71//69
f 39//37 55//53 71//69
f 10//7 12//10 11//8
f 12//10 14//12 13//11
f 14//12 16//14 15//13
f 16//14 18//16 17//15
f 18//16 20//18 19//17
f 20//18 22//20 21//19
f 22//20 24//22 23//21
f 24//22 26//24 25//23
f 26//24 28//26 27//25
f 28//26 30//28 29//27
f 30//28 32//30 31//29
f 32//30 34//32 33//31
f 34//32 36//34 35//33
f 36//34 38//36 37//35
f 38//36 40//38 39//37
f 40//38 42//40 41//39
f 42//40 44//42 43//41
f 44//42 46//44 45//43
f 46//44 48//46 47//45
f 48//46 50//48 49//47
f 50//48 52//50 51//49
f 52//50 54//52 53//51
f 54//52 56//54 55//53
f 56//54 58//56 57//55
f 58//56 60//58 59//57
f 60//58 62//60 61//59
f 62//60 64//62 63//61
f 64//62 66//64 65//63
f 66//64 68//66 67//65
f 68//66 70//68 69//67
f 14//12 12//10 10//7
f 10//7 72//70 70//68
f 70//68 68//66 66//64
f 66//64 64//62 62//60
f 62//60 60//58 58//56
f 58//56 56//54 54//52
f 54//52 52//50 50//48
f 50//48 48//46 46//44
f 46//44 44//42 42//40
f 42//40 40//38 38//36
f 38//36 36//34 34//32
f 34//32 32//30 30//28
f 30//28 28//26 26//24
f 26//24 24//22 22//20
f 22//20 20//18 18//16
f 18//16 16//14 14//12
f 14//12 10//7 70//68
f 70//68 66//64 62//60
f 62//60 58//56 54//52
f 54//52 50//48 46//44
f 46//44 42//40 38//36
f 38//36 34//32 30//28
f 30//28 26//24 22//20
f 22//20 18//16 14//12
f 14//12 70//68 62//60
f 62//60 54//52 46//44
f 46//44 38//36 30//28
f 30//28 22//20 14//12
f 14//12 62//60 46//44
f 70//68 72//70 71//69
f 72//70 10//7 9//9
f 71//69 9//9 11//8
f 11//8 13//11 15//13
f 15//13 17//15 19//17
f 19//17 21//19 23//21
f 23//21 25//23 27//25
f 27//25 29//27 31//29
f 31//29 33//31 35//33
f 35//33 37//35 39//37
f 39//37 41//39 43//41
f 43//41 45//43 47//45
f 47//45 49//47 51//49
f 51//49 53//51 55//53
f 55//53 57//55 59//57
f 59//57 61//59 63//61
f 63//61 65//63 67//65
f 67//65 69//67 71//69
f 71//69 11//8 15//13
f 15//13 19//17 23//21
f 23//21 27//25 31//29
f 31//29 35//33 39//37
f 39//37 43//41 47//45
f 47//45 51//49 55//53
f 55//53 59//57 63//61
f 63//61 67//65 71//69
f 71//69 15//13 23//21
f 23//21 31//29 39//37
f 39//37 47//45 55//53
f 55//53 63//61 71//69
f 71//69 23//21 39//37
